<?xml version="1.0" standalone="no"?>
<!DOCTYPE svg PUBLIC "-//W3C//DTD SVG 20010904//EN"
 "http://www.w3.org/TR/2001/REC-SVG-20010904/DTD/svg10.dtd">
<svg version="1.0" xmlns="http://www.w3.org/2000/svg"
 width="563.000000pt" height="563.000000pt" viewBox="0 0 563.000000 563.000000"
 preserveAspectRatio="xMidYMid meet">
<metadata>
Created by potrace 1.11, written by Peter Selinger 2001-2013
</metadata>
<g transform="translate(0.000000,563.000000) scale(0.100000,-0.100000)"
fill="#000000" stroke="none">
<path d="M0 2820 l0 -2640 2815 0 2815 0 0 2640 0 2640 -2815 0 -2815 0 0
-2640z m2115 2580 c-28 -106 -38 -227 -33 -411 5 -166 31 -393 47 -411 4 -4
45 2 93 13 l86 20 16 42 c9 24 16 52 16 64 0 12 4 23 10 25 5 2 13 31 16 66 5
40 10 58 15 50 6 -8 9 0 9 24 0 20 5 38 10 40 6 2 13 21 16 43 4 22 12 45 19
50 6 6 15 32 19 59 5 32 11 45 16 36 6 -9 12 1 20 31 19 73 20 76 30 59 5 -8
12 -32 16 -53 4 -26 10 -37 19 -33 9 3 15 -10 20 -42 4 -26 12 -50 17 -53 6
-4 13 -27 15 -53 4 -30 10 -46 19 -46 9 0 14 -12 14 -36 0 -21 4 -33 10 -29 6
4 10 -13 10 -44 0 -36 4 -51 13 -51 19 0 127 72 157 104 l25 28 6 -24 c4 -13
7 -54 8 -93 2 -150 -32 -335 -84 -451 -30 -67 -32 -86 -8 -77 12 5 15 2 11 -8
-19 -49 -19 -59 -4 -53 14 5 14 2 1 -36 -18 -50 -18 -53 -5 -45 13 8 13 -16 0
-49 -5 -14 -6 -26 -1 -26 11 0 4 -131 -9 -166 -13 -33 -13 -37 1 -28 13 8 11
-3 -16 -89 -8 -26 -10 -45 -5 -42 14 9 12 -6 -5 -56 -10 -27 -12 -45 -5 -49 6
-4 2 -25 -10 -57 -11 -30 -15 -53 -10 -55 6 -2 3 -20 -6 -46 -10 -23 -15 -44
-12 -47 3 -3 48 12 101 32 94 38 95 39 130 98 46 79 109 149 161 180 22 13 52
38 66 55 44 54 114 125 121 123 4 -1 12 11 19 27 7 18 17 27 26 23 8 -3 14 0
14 6 0 6 6 11 14 11 8 0 18 9 21 20 4 11 10 18 15 15 5 -3 14 4 21 16 8 15 13
18 19 10 4 -8 12 -1 20 19 8 20 16 27 20 20 5 -8 14 -2 26 19 10 17 21 26 24
20 4 -6 14 1 24 16 9 14 21 23 26 20 5 -3 14 4 20 15 6 11 15 18 19 15 5 -2
16 7 25 20 9 14 21 23 26 20 4 -3 20 9 34 26 14 17 26 26 26 20 0 -5 20 10 44
35 28 28 46 40 49 32 6 -17 37 55 37 87 0 14 5 25 10 25 6 0 10 -13 10 -29 0
-31 15 -36 44 -12 9 7 16 10 16 5 0 -5 5 -1 11 8 5 9 15 15 22 12 7 -2 26 9
42 26 41 43 65 40 31 -4 -14 -19 -26 -40 -26 -47 0 -7 -11 -27 -26 -46 -14
-18 -23 -37 -20 -42 3 -5 -6 -16 -19 -25 -14 -9 -23 -21 -20 -26 3 -5 -5 -20
-17 -32 -13 -13 -23 -27 -24 -33 0 -5 -3 -17 -6 -25 -3 -8 -11 -55 -17 -105
-15 -115 -43 -217 -92 -330 -21 -49 -39 -94 -39 -98 0 -4 59 -6 131 -5 l131 3
40 98 c82 205 118 461 99 707 -10 122 -33 278 -47 319 -3 9 -33 -15 -87 -69
-221 -220 -541 -404 -945 -541 -134 -45 -168 -65 -222 -127 -47 -55 -55 -45
-9 11 45 55 89 79 240 132 426 151 720 323 946 553 l81 83 15 -68 c32 -144 41
-234 41 -418 1 -278 -33 -439 -140 -681 -3 -7 23 -13 76 -18 305 -25 772 -152
1060 -287 l104 -50 -110 -47 c-256 -112 -605 -342 -851 -562 -193 -172 -273
-253 -262 -266 12 -14 7 -17 -21 -15 -20 2 -235 -234 -382 -420 -126 -158
-213 -224 -360 -275 -157 -53 -386 -68 -613 -40 -60 8 -114 12 -118 9 -5 -3
-19 -1 -30 5 -12 6 -98 29 -192 52 -93 23 -237 64 -320 92 -213 71 -595 228
-595 245 0 3 57 91 127 197 71 105 132 197 136 203 6 10 2 11 -18 3 -15 -6
-31 -8 -36 -5 -5 3 -17 1 -28 -4 -14 -8 -20 -8 -23 1 -3 9 -12 8 -31 -5 -14
-9 -33 -14 -41 -11 -8 3 -24 1 -35 -6 -16 -8 -21 -8 -21 1 0 8 -4 8 -15 -1
-12 -10 -15 -10 -15 0 0 8 -6 9 -17 5 -10 -4 -34 -8 -53 -9 -19 -1 -41 -5 -47
-9 -7 -5 -17 -5 -23 -2 -5 3 -19 1 -30 -5 -14 -8 -20 -8 -20 0 0 6 -5 8 -12 4
-6 -4 -23 -9 -37 -10 -14 -2 -35 -5 -46 -7 -11 -2 -23 0 -26 5 -4 6 -18 4 -36
-5 -26 -14 -34 -30 -66 -134 -72 -229 -119 -447 -152 -703 -9 -68 -17 -125
-18 -126 -5 -5 -197 -51 -197 -48 0 17 58 270 95 410 127 492 292 877 490
1139 36 48 65 88 65 91 0 2 -7 4 -15 4 -8 0 -15 5 -15 10 0 6 -7 10 -15 10
-15 0 -24 6 -58 36 -7 6 -23 15 -35 18 -12 4 -22 12 -22 17 0 5 -6 9 -13 9 -8
0 -24 9 -37 20 -13 11 -29 20 -37 20 -7 0 -13 5 -13 10 0 6 -12 16 -27 23 -29
13 -38 19 -91 67 -18 17 -37 30 -43 30 -5 0 -22 13 -38 29 -16 16 -43 37 -60
46 -17 9 -29 20 -26 25 4 6 2 10 -4 10 -5 0 -22 11 -36 24 -14 13 -36 31 -48
40 -21 16 -21 16 13 9 19 -3 49 -8 65 -10 55 -5 70 -8 93 -21 12 -7 27 -10 32
-7 5 3 19 1 30 -5 15 -8 20 -8 20 1 0 7 9 5 25 -5 14 -9 30 -14 35 -11 5 3 12
0 15 -6 4 -5 13 -8 20 -5 7 2 22 -2 34 -10 12 -8 26 -12 31 -9 6 4 19 3 28 -1
18 -7 31 -10 74 -17 15 -2 34 -10 43 -17 10 -8 15 -9 15 -2 0 6 16 2 35 -9 24
-14 35 -17 35 -8 0 8 8 5 22 -7 21 -19 21 -19 14 1 -172 452 -206 587 -206
810 0 109 -2 124 -20 140 -11 10 -17 22 -13 28 3 5 0 15 -8 21 -17 14 -39 51
-39 67 0 5 -12 26 -26 45 -33 42 -20 44 29 3 20 -17 41 -27 47 -24 6 3 13 -1
16 -9 14 -36 32 -11 57 82 88 313 325 598 682 822 63 39 280 149 297 150 3 0
0 -23 -7 -50z m-981 -3474 c26 -9 61 -16 78 -16 17 0 39 -7 48 -15 9 -8 30
-17 46 -19 26 -3 55 -17 112 -51 10 -5 32 -23 50 -39 54 -49 37 -125 -38 -167
-22 -13 -40 -26 -40 -31 0 -4 -4 -8 -9 -8 -5 0 -23 -13 -41 -30 -18 -16 -38
-30 -44 -30 -7 0 -23 -11 -36 -25 -13 -14 -29 -25 -35 -25 -7 0 -17 -12 -24
-26 -10 -24 -10 -26 6 -19 10 3 41 12 68 20 28 7 58 16 68 20 11 5 17 3 17 -6
0 -7 3 -10 6 -7 3 4 20 2 37 -3 18 -6 48 -11 67 -13 69 -6 127 -42 166 -104
20 -31 41 -58 45 -60 19 -8 7 -66 -26 -130 -42 -81 -98 -147 -119 -139 -9 4
-17 -1 -21 -14 -4 -10 -14 -19 -24 -19 -10 0 -29 -8 -42 -19 -13 -10 -34 -21
-46 -25 -13 -4 -23 -11 -23 -15 0 -5 -22 -11 -50 -15 -27 -4 -52 -10 -54 -15
-3 -5 -16 -6 -30 -4 -13 3 -27 0 -30 -6 -4 -6 -16 -11 -27 -11 -10 0 -19 -4
-19 -10 0 -14 -52 -12 -73 4 -22 17 -28 79 -30 308 -2 170 -3 178 -25 198 -19
18 -20 24 -11 43 7 12 19 28 27 36 15 16 13 119 -7 298 -12 102 -26 144 -47
136 -23 -9 -64 6 -64 23 0 42 17 52 84 49 35 -2 84 -10 110 -19z m2876 -333
c4 -100 0 -192 -13 -307 -7 -55 -12 -119 -11 -141 1 -22 2 -66 3 -98 1 -55 3
-59 31 -68 32 -12 36 -20 20 -50 -16 -29 -36 -23 -56 19 -14 27 -20 65 -22
142 -2 58 -7 109 -12 113 -4 5 -18 -10 -31 -32 -12 -23 -26 -41 -31 -41 -4 0
-8 -6 -8 -13 0 -7 -33 -54 -74 -104 -89 -107 -145 -141 -193 -115 -51 28 -54
158 -8 317 47 162 63 182 159 192 62 6 105 -9 145 -51 50 -53 58 -33 65 176 3
65 7 122 11 128 14 22 23 -3 25 -67z m339 63 c9 -11 2 -23 -36 -60 -26 -25
-62 -57 -79 -71 -37 -29 -67 -35 -41 -7 39 40 113 125 120 138 10 18 21 18 36
0z m-2064 -47 c7 -21 1 -199 -14 -404 -8 -106 -7 -185 4 -233 7 -30 25 -25
124 34 40 24 75 44 77 44 2 0 4 -6 4 -14 0 -20 -106 -102 -158 -122 -45 -17
-45 -17 -63 7 -24 32 -31 100 -24 234 3 61 8 187 11 280 3 94 7 176 9 183 7
19 23 14 30 -9z m591 -189 c25 -12 54 -20 64 -17 24 6 36 -28 24 -65 -4 -13
-8 -34 -10 -48 -12 -110 -16 -142 -23 -195 -11 -85 -8 -112 18 -136 27 -25 24
-53 -7 -57 -16 -3 -25 3 -32 22 -11 31 -15 189 -5 229 13 50 -20 30 -68 -42
-48 -73 -157 -195 -189 -212 -14 -8 -25 -4 -48 18 -26 24 -30 36 -31 78 0 28
5 75 11 105 6 30 11 62 11 70 1 8 12 47 25 86 13 39 24 81 24 94 0 14 16 38
42 63 40 38 43 39 95 34 30 -3 74 -15 99 -27z m-822 -5 c37 -34 36 -103 -3
-165 -32 -51 -102 -93 -160 -95 -30 -1 -36 -5 -47 -35 -7 -19 -13 -63 -13 -98
-1 -56 2 -66 25 -87 52 -48 139 -29 221 48 34 32 49 32 39 0 -15 -47 -105
-113 -163 -119 -73 -8 -103 5 -131 57 -20 38 -23 53 -18 114 16 218 18 233 32
228 8 -3 23 15 40 49 31 61 99 128 130 128 12 0 33 -11 48 -25z m2225 -83 c-6
-15 -9 -40 -8 -57 2 -17 0 -35 -3 -40 -11 -18 -31 -223 -24 -249 4 -17 13 -26
26 -26 27 0 120 53 150 85 23 25 50 33 50 16 0 -10 -100 -111 -111 -111 -4 0
-14 -6 -21 -13 -7 -7 -30 -18 -51 -24 -34 -10 -41 -9 -59 9 -19 19 -20 28 -15
132 17 307 19 325 36 329 26 6 41 -21 30 -51z m-1085 31 c3 -10 8 -72 11 -137
3 -66 7 -121 8 -123 2 -1 14 18 27 45 45 89 175 203 247 218 49 10 47 -12 -2
-31 -142 -54 -276 -255 -263 -394 4 -44 2 -51 -14 -57 -11 -3 -22 -4 -24 -1
-2 2 -5 67 -6 143 0 76 -6 184 -13 239 -7 55 -10 103 -8 108 8 14 32 7 37 -10z
m-2574 -658 c-3 -33 -5 -114 -5 -180 0 -114 1 -120 20 -117 20 3 20 2 1 -13
-30 -23 -53 -19 -59 12 -3 15 -1 97 4 183 4 85 8 161 9 168 0 8 8 12 18 10 15
-3 16 -12 12 -63z m1637 23 c-3 -24 -9 -86 -12 -138 -5 -76 -4 -91 6 -75 54
91 119 100 135 17 18 -91 -75 -180 -147 -141 -15 8 -24 7 -37 -3 -14 -11 -15
-10 -8 7 4 11 12 94 17 185 11 186 12 190 35 190 14 0 16 -7 11 -42z m339 5
c-4 -21 -9 -102 -13 -180 l-6 -143 29 0 29 -1 -28 -15 c-58 -31 -61 -23 -54
176 3 99 9 184 12 190 3 5 13 10 22 10 13 0 14 -7 9 -37z m756 -15 c-4 -29 -7
-111 -7 -183 l0 -130 25 3 25 2 -25 -14 c-37 -23 -57 -20 -62 9 -3 14 -2 92 3
173 4 81 8 157 8 170 1 15 7 22 21 22 17 0 18 -5 12 -52z m1058 25 c0 -15 -5
-89 -11 -164 -11 -147 -5 -183 29 -173 14 5 14 3 -2 -10 -26 -21 -52 -20 -61
1 -6 17 0 180 11 311 4 44 10 62 20 62 9 0 14 -10 14 -27z m115 -10 c-8 -55
-23 -238 -20 -241 1 -1 14 16 29 38 29 44 65 66 90 57 26 -10 19 -53 -14 -84
-16 -15 -30 -31 -30 -35 0 -3 12 -20 26 -38 19 -23 32 -29 48 -25 21 6 21 6 2
-9 -32 -25 -54 -19 -86 26 -16 22 -30 44 -30 47 0 3 14 14 30 23 35 20 48 44
31 61 -19 18 -66 -41 -87 -107 -10 -30 -24 -58 -32 -61 -12 -4 -13 11 -8 102
17 282 17 283 37 283 16 0 18 -5 14 -37z m-4375 -162 c0 -138 -9 -191 -31
-191 -8 0 -10 41 -9 143 3 176 5 167 -22 167 -19 0 -20 2 -8 10 8 5 27 10 43
10 l27 0 0 -139z m180 118 c0 -17 -5 -20 -21 -16 -23 6 -85 -44 -109 -87 -12
-24 -10 -30 34 -96 45 -68 76 -93 104 -83 6 3 12 13 12 23 0 25 42 56 85 64
25 5 35 12 35 26 0 36 -12 50 -41 50 -27 0 -33 -8 -30 -37 3 -19 -16 -24 -30
-7 -11 14 -9 20 14 40 31 27 88 32 105 11 6 -7 12 -49 14 -92 3 -75 4 -80 28
-86 l25 -6 -28 -8 c-30 -8 -57 7 -57 32 0 11 -9 7 -31 -11 -31 -26 -63 -34
-73 -17 -3 4 -23 4 -45 -2 -34 -9 -43 -8 -60 7 -27 24 -101 139 -101 156 0 16
75 118 104 142 30 25 66 23 66 -3z m1440 -21 l-1 -43 -14 33 c-13 29 -18 32
-58 32 -42 0 -45 -2 -51 -31 -3 -17 -6 -47 -6 -65 l0 -34 55 0 c30 0 55 -4 55
-10 0 -5 -25 -10 -55 -10 l-55 0 0 -65 0 -66 63 3 c56 3 62 5 65 26 4 26 22
30 21 5 -2 -53 -11 -58 -102 -58 l-86 0 2 150 2 150 -25 4 -25 4 25 8 c14 4
62 7 108 8 l82 1 0 -42z m2532 35 c2 -5 1 -24 -3 -43 -3 -19 -7 -26 -8 -14 -2
31 -21 44 -68 44 l-43 0 0 -42 c0 -24 -3 -53 -6 -65 -6 -22 -4 -23 50 -23 31
0 56 -4 56 -10 0 -5 -25 -10 -55 -10 l-55 0 0 -65 0 -65 60 0 c57 0 61 2 72
28 11 26 12 26 15 5 9 -48 -9 -58 -100 -58 l-85 0 2 150 1 150 -25 4 -25 4 25
8 c33 9 188 11 192 2z m-1814 -26 c4 -20 -25 -34 -39 -20 -14 14 1 45 20 41 9
-2 17 -11 19 -21z m755 11 c6 -19 -3 -38 -18 -38 -18 0 -28 17 -21 35 7 18 33
20 39 3z m-538 -53 l-6 -55 30 0 c17 0 31 -5 31 -11 0 -7 -12 -10 -29 -7 -34
5 -41 -8 -41 -84 0 -56 19 -81 58 -72 l27 5 -25 -15 c-35 -21 -67 -20 -80 3
-5 11 -10 54 -10 95 0 66 -2 75 -17 69 -11 -4 -14 -3 -9 5 4 7 13 12 20 12 9
0 16 19 21 55 5 40 11 55 22 55 13 0 14 -9 8 -55z m2419 13 c-3 -24 -7 -49
-10 -55 -2 -9 8 -13 32 -13 21 0 33 -4 29 -10 -3 -5 -19 -10 -36 -10 l-29 0 0
-69 c0 -75 11 -93 51 -85 23 5 23 5 5 -10 -23 -19 -57 -21 -74 -4 -7 7 -12 44
-12 95 0 76 -8 100 -26 72 -3 -6 -15 -8 -26 -6 -28 8 -54 -23 -72 -84 -9 -29
-16 -58 -16 -65 0 -6 -7 -14 -15 -18 -13 -4 -15 9 -15 89 0 92 -1 95 -22 96
-21 1 -20 2 5 11 47 17 59 5 52 -49 l-6 -48 19 40 c26 55 44 68 83 60 36 -8
49 4 49 47 0 37 10 58 26 58 11 0 13 -10 8 -42z m-4313 -80 c7 -13 9 -44 6
-79 -6 -64 8 -97 37 -86 9 4 16 2 16 -3 0 -13 -37 -22 -59 -15 -10 3 -21 15
-24 26 -5 19 -6 19 -31 -6 -40 -40 -86 -28 -86 22 0 31 34 59 81 67 33 5 39
10 39 30 0 30 -22 49 -52 44 -17 -2 -23 -9 -22 -25 0 -16 -5 -23 -18 -23 -10
0 -18 6 -18 13 1 51 107 80 131 35z m119 -30 l0 -53 20 42 c36 81 100 80 100
-1 l0 -41 19 40 c22 49 43 68 73 63 22 -3 23 -8 28 -93 5 -89 5 -90 30 -87
l25 2 -25 -14 c-53 -32 -59 -24 -62 72 -2 68 -6 87 -18 87 -20 0 -58 -71 -66
-122 -3 -24 -10 -43 -15 -43 -5 0 -12 -1 -16 -2 -4 -2 -6 32 -4 74 1 42 0 82
-3 87 -19 30 -70 -43 -82 -117 -3 -23 -13 -43 -20 -46 -11 -4 -14 13 -14 89 0
92 -1 95 -22 96 -22 0 -22 1 -3 9 46 20 55 13 55 -42z m355 -30 c0 -89 12
-111 43 -80 17 17 33 59 58 150 2 6 8 12 14 12 6 0 10 -33 10 -84 0 -61 4 -87
15 -96 8 -6 19 -9 25 -5 5 3 10 2 10 -4 0 -17 -49 -25 -65 -11 -9 7 -15 30
-15 54 l-1 41 -23 -45 c-26 -52 -64 -72 -92 -49 -14 11 -16 25 -10 92 6 74 5
79 -15 84 -16 4 -18 8 -7 14 7 5 22 8 33 7 18 -3 20 -11 20 -80z m585 30 l0
-53 19 40 c21 47 43 68 68 63 29 -5 21 -32 -12 -38 -25 -4 -33 -14 -52 -60
-12 -30 -23 -65 -23 -76 0 -12 -7 -24 -15 -28 -13 -4 -15 9 -15 89 0 92 -1 95
-22 96 -22 0 -22 1 -3 9 46 20 55 13 55 -42z m248 40 c7 -7 12 -41 12 -82 0
-78 5 -91 35 -98 17 -4 16 -6 -8 -13 -30 -8 -57 7 -57 33 0 12 -7 9 -28 -11
-36 -34 -69 -35 -84 -2 -17 37 11 72 68 86 42 11 45 13 42 43 -3 27 -7 31 -35
34 -30 3 -33 1 -33 -22 0 -16 -6 -26 -15 -26 -23 0 -18 37 7 54 27 19 79 21
96 4z m357 -80 l0 -93 25 3 c18 3 22 1 14 -8 -6 -6 -24 -12 -40 -13 l-29 -2
-3 103 c-2 92 -1 102 15 102 16 0 18 -10 18 -92z m473 82 c6 0 -59 -82 -95
-121 l-34 -36 48 -7 c42 -6 50 -4 66 15 16 20 17 20 17 2 0 -11 -6 -28 -14
-38 -11 -16 -19 -17 -63 -8 -28 5 -60 6 -72 2 -36 -14 -25 11 39 86 l59 70
-37 7 c-30 5 -40 3 -54 -14 -18 -20 -18 -20 -18 4 0 45 15 49 158 38z m160 -3
c6 -7 12 -49 14 -92 3 -75 4 -80 28 -86 l25 -6 -28 -8 c-30 -8 -57 7 -57 33 0
12 -7 9 -28 -11 -44 -42 -92 -32 -92 19 0 28 39 60 85 68 28 5 35 12 35 29 0
35 -15 49 -46 45 -22 -2 -29 -8 -29 -25 0 -29 -10 -36 -24 -19 -11 12 -8 20
13 41 28 28 86 35 104 12z m124 -79 c3 -93 3 -93 28 -90 18 3 22 1 14 -8 -6
-6 -24 -12 -40 -13 l-29 -2 -3 103 c-2 85 0 102 12 102 12 0 16 -18 18 -92z
m306 80 c32 -32 0 -73 -66 -84 -45 -7 -47 -10 -32 -48 14 -38 44 -50 80 -31
38 20 39 5 1 -18 -42 -25 -76 -22 -100 9 -51 65 1 184 79 184 14 0 31 -5 38
-12z m180 0 c32 -32 0 -73 -66 -84 -44 -7 -51 -19 -32 -54 18 -34 48 -44 77
-25 34 23 40 12 7 -14 -34 -27 -72 -27 -101 1 -42 39 -28 132 27 175 20 16 73
16 88 1z m94 -43 l-2 -50 16 30 c26 48 56 75 81 75 32 0 41 -29 35 -111 l-5
-67 29 -4 29 -4 -29 -12 c-49 -21 -56 -11 -56 77 0 45 -5 83 -10 86 -24 15
-72 -58 -85 -127 -4 -20 -13 -39 -21 -42 -11 -4 -14 12 -14 90 0 91 -1 96 -20
91 -11 -3 -20 -1 -20 3 0 10 28 19 55 17 18 -2 20 -8 17 -52z m1006 42 c6 -7
12 -49 14 -92 3 -76 4 -80 26 -79 30 1 28 -14 -3 -22 -28 -7 -55 10 -55 34 0
12 -7 9 -28 -11 -44 -42 -92 -32 -92 19 0 32 24 52 76 65 35 9 44 16 44 33 0
34 -15 48 -46 44 -23 -2 -29 -7 -27 -25 2 -14 -3 -23 -12 -23 -27 0 -28 23 -1
47 30 26 87 31 104 10z m520 1 c32 -32 -3 -74 -70 -85 -40 -6 -46 -19 -28 -53
18 -34 48 -44 77 -25 34 23 40 12 7 -14 -51 -40 -113 -16 -129 50 -8 32 18 98
48 121 26 20 78 23 95 6z m170 -1 c6 -7 12 -49 14 -92 3 -75 4 -80 28 -86 l25
-6 -28 -8 c-30 -8 -57 7 -57 33 0 12 -7 9 -28 -11 -44 -42 -92 -32 -92 19 0
28 39 60 86 68 32 7 35 10 32 39 -3 28 -7 32 -35 35 -27 3 -32 0 -35 -23 -4
-32 -22 -38 -26 -8 -6 41 88 74 116 40z"/>
<path d="M1973 5366 c-425 -213 -722 -542 -825 -914 l-20 -74 23 -21 c13 -12
27 -21 31 -20 4 2 13 -7 19 -18 8 -16 13 -18 19 -9 6 9 10 7 15 -9 3 -11 12
-21 20 -21 7 0 20 -11 29 -25 9 -14 21 -23 25 -20 5 2 21 44 36 92 75 240 226
452 438 611 96 72 187 129 187 117 0 -4 -26 -35 -57 -69 -105 -112 -152 -239
-160 -429 -6 -144 4 -231 47 -382 39 -140 42 -171 25 -269 -15 -83 -14 -87 5
-106 11 -11 20 -25 20 -31 0 -5 4 -8 9 -4 6 3 15 -4 21 -15 12 -22 18 -30 73
-93 l34 -38 72 76 c134 141 174 222 174 350 0 76 -5 107 -36 203 -122 379
-163 807 -107 1101 12 66 12 71 1 71 -5 0 -58 -24 -118 -54z"/>
<path d="M1800 4936 c-220 -165 -388 -403 -454 -644 -15 -56 -16 -64 -2 -84
11 -15 16 -18 16 -8 0 9 11 1 26 -18 14 -18 30 -30 35 -26 5 3 12 -2 15 -10 3
-9 12 -16 19 -16 7 0 20 -11 29 -25 9 -14 21 -23 25 -20 5 2 16 -7 26 -21 9
-14 19 -23 23 -20 3 3 14 -6 24 -21 11 -17 18 -22 18 -13 1 8 8 2 16 -14 12
-20 18 -25 24 -16 6 9 10 7 15 -9 3 -11 13 -21 21 -21 8 0 14 -8 14 -17 0 -14
2 -15 9 -5 6 10 14 5 29 -20 12 -18 22 -26 22 -18 1 8 8 2 16 -13 31 -57 51
-16 53 107 1 49 -9 105 -34 200 -75 286 -67 493 27 681 17 33 44 77 60 98 16
20 26 37 21 37 -4 0 -46 -29 -93 -64z"/>
<path d="M2768 4797 c-72 -49 -77 -54 -77 -89 -1 -20 4 -40 9 -43 6 -3 10 -19
10 -34 0 -15 4 -31 9 -36 6 -6 11 -35 13 -65 2 -40 7 -54 17 -52 11 2 13 -9 9
-52 -3 -41 -1 -57 9 -60 31 -12 72 169 80 347 3 75 4 137 2 136 -2 0 -39 -24
-81 -52z"/>
<path d="M2508 4664 c-5 -4 -8 -18 -8 -31 0 -12 -5 -43 -12 -67 -11 -43 -12
-43 -28 -24 -15 19 -17 12 -33 -133 -24 -218 -22 -297 9 -393 15 -49 23 -90
19 -107 -4 -15 1 -43 10 -65 10 -25 12 -40 5 -42 -15 -5 -12 -31 10 -89 11
-29 16 -55 11 -58 -5 -3 -11 1 -14 7 -2 7 -8 10 -12 6 -4 -4 1 -29 10 -57 9
-28 15 -66 14 -83 -3 -38 10 -106 21 -113 10 -6 34 81 27 99 -3 8 2 46 13 83
10 37 17 70 15 72 -3 2 -12 -2 -21 -10 -16 -12 -17 -12 -11 6 29 96 35 130 26
135 -6 4 -6 15 -1 31 5 13 10 27 11 31 1 4 4 15 8 24 3 9 1 19 -5 23 -8 4 -2
36 18 101 35 110 37 161 14 370 -19 174 -20 182 -39 156 -15 -19 -17 -14 -42
97 -4 21 -11 35 -15 31z"/>
<path d="M2210 4570 c-41 -9 -74 -21 -74 -26 1 -5 12 -55 24 -111 22 -100 24
-103 50 -103 38 0 60 37 60 100 0 32 4 49 10 45 6 -4 10 11 10 39 0 24 3 51 6
60 7 18 12 19 -86 -4z"/>
<path d="M2203 4314 c-15 -6 11 -102 34 -124 14 -13 15 -11 8 24 -6 34 -4 38
11 32 13 -5 15 -2 10 16 -3 13 -6 31 -6 41 0 17 -29 22 -57 11z"/>
<path d="M1113 4080 c8 -194 55 -378 171 -670 l41 -105 7 50 c9 69 8 238 -2
305 -4 30 -13 102 -20 160 -10 81 -17 109 -32 123 -14 11 -16 17 -7 17 8 0 2
11 -13 25 -16 13 -28 28 -28 33 0 5 -7 15 -15 22 -9 7 -13 15 -10 18 3 3 -7
18 -22 34 -16 17 -22 28 -13 28 9 0 3 11 -13 28 -15 16 -25 31 -22 34 3 3 -2
11 -11 19 -16 13 -17 4 -11 -121z"/>
<path d="M3830 4080 c-6 -11 -8 -20 -4 -20 3 0 -12 -22 -35 -49 -22 -26 -38
-51 -35 -54 3 -3 -6 -13 -20 -23 -15 -9 -24 -19 -21 -22 3 -3 -7 -18 -22 -34
-18 -19 -22 -28 -12 -28 9 -1 6 -7 -10 -20 -14 -12 -18 -20 -10 -20 8 0 1 -9
-16 -20 -16 -11 -24 -20 -16 -20 8 0 4 -8 -10 -20 -13 -10 -19 -20 -14 -20 6
0 -3 -9 -20 -20 -17 -11 -23 -20 -15 -20 9 0 4 -9 -14 -23 -16 -13 -31 -32
-32 -43 -3 -18 2 -19 69 -16 111 5 114 6 147 72 50 99 85 217 114 383 8 41 -6
50 -24 17z"/>
<path d="M2236 3937 c-3 -14 -9 -32 -12 -41 -5 -12 -2 -15 10 -10 10 4 15 12
12 19 -2 7 0 17 4 21 5 5 5 15 1 23 -6 9 -10 6 -15 -12z"/>
<path d="M1316 3848 c3 -24 10 -65 16 -93 7 -27 13 -142 14 -255 l3 -205 23 3
c13 1 64 44 121 100 90 90 113 122 86 122 -6 0 -9 6 -6 13 3 7 -4 19 -15 26
-11 7 -17 15 -14 18 3 3 -6 14 -19 25 -14 11 -25 25 -25 33 0 7 -11 20 -25 29
-14 9 -23 21 -20 26 3 5 -4 14 -15 20 -11 6 -18 15 -15 20 3 5 -4 14 -16 21
-14 7 -18 14 -10 18 7 5 3 12 -13 21 -14 7 -23 17 -20 21 2 4 -5 14 -17 22
-19 14 -19 15 -3 19 15 3 14 6 -9 21 l-27 18 6 -43z"/>
<path d="M2209 3858 c-8 -7 -28 -33 -43 -56 -15 -24 -61 -79 -103 -123 -42
-43 -71 -79 -64 -79 6 0 11 -6 11 -14 0 -7 11 -25 24 -39 14 -15 27 -36 31
-47 4 -11 10 -18 15 -15 4 2 14 -10 21 -27 7 -18 21 -40 31 -50 10 -10 18 -25
18 -33 0 -8 5 -15 11 -15 5 0 15 -13 20 -30 6 -16 15 -28 19 -25 5 3 14 -10
21 -29 7 -19 16 -33 21 -30 4 3 10 -7 14 -21 3 -14 11 -29 18 -33 6 -4 16 -17
21 -30 l10 -22 37 30 c36 30 37 33 24 58 -22 43 -30 76 -17 68 15 -10 14 -5
-8 47 -11 25 -17 48 -14 51 4 3 -2 25 -13 48 -13 28 -15 43 -7 45 7 3 5 20 -8
56 -22 60 -22 60 -9 52 13 -8 13 -7 -10 59 -15 45 -16 57 -6 53 11 -4 10 8 -6
55 -15 44 -17 62 -9 67 16 10 3 41 -18 41 -10 0 -24 -6 -32 -12z"/>
<path d="M3033 3636 c-47 -50 -116 -146 -109 -154 10 -9 38 16 67 61 18 28 41
60 51 72 50 54 64 75 52 75 -4 0 -32 -24 -61 -54z"/>
<path d="M3541 3593 c-44 -4 -91 -38 -84 -60 2 -5 -8 -15 -22 -23 -14 -7 -25
-19 -25 -27 0 -7 -11 -19 -25 -25 -16 -7 -21 -14 -15 -18 7 -4 -2 -12 -19 -20
-17 -7 -31 -18 -31 -24 0 -7 -17 -20 -37 -31 -23 -10 -33 -20 -25 -23 9 -2 -2
-14 -27 -29 -23 -13 -39 -28 -36 -33 3 -5 -3 -14 -14 -20 -11 -6 -32 -22 -47
-35 -15 -14 -31 -25 -36 -25 -5 0 -6 -5 -3 -10 3 -6 -7 -18 -24 -28 -49 -27
-37 -31 44 -11 65 15 217 44 280 54 11 1 21 4 23 5 1 1 5 3 10 4 4 1 17 7 28
14 12 6 25 8 29 4 3 -4 14 2 22 13 11 14 17 16 20 7 3 -9 13 -7 34 9 16 11 29
15 29 9 0 -6 13 -2 30 10 18 13 30 17 30 10 0 -8 9 -7 26 5 14 9 28 14 32 11
3 -3 16 1 29 9 14 10 23 11 23 4 0 -6 15 -1 33 10 19 11 37 18 40 14 4 -3 13
0 21 6 8 7 20 10 26 6 6 -4 17 -2 24 4 7 6 34 13 60 15 26 3 53 9 59 14 7 5
20 10 30 11 9 0 25 2 35 2 9 1 26 9 36 18 15 12 20 13 23 3 4 -10 10 -10 28 2
17 11 25 12 27 4 3 -8 15 -4 36 11 18 12 32 17 32 11 0 -6 5 -8 12 -4 6 4 26
8 42 10 17 1 47 5 66 8 l35 7 -25 -20 c-14 -12 -36 -30 -48 -41 -13 -11 -28
-20 -33 -20 -6 0 -7 -5 -4 -10 4 -6 -9 -17 -28 -25 -19 -8 -37 -21 -40 -30 -4
-8 -13 -15 -22 -15 -8 0 -15 -5 -15 -10 0 -6 -16 -18 -35 -27 -19 -9 -35 -22
-35 -28 0 -6 -13 -16 -30 -22 -55 -21 -37 -38 63 -57 97 -18 334 -82 358 -96
24 -16 5 -18 -51 -8 -30 6 -107 8 -170 5 -189 -9 -343 -50 -535 -142 -110 -53
-305 -179 -313 -203 -2 -8 7 -12 28 -12 18 0 29 -4 25 -10 -4 -6 5 -10 19 -10
14 0 26 -3 26 -7 0 -5 20 -17 45 -28 25 -11 45 -23 45 -27 0 -5 12 -8 26 -8
14 0 23 -4 19 -10 -4 -6 5 -10 19 -10 14 0 26 -4 26 -10 0 -5 7 -10 15 -10 9
0 18 -7 21 -15 4 -8 15 -15 25 -15 10 0 19 -7 19 -15 0 -10 10 -15 30 -15 17
0 30 -4 30 -10 0 -5 7 -10 15 -10 8 0 15 -4 15 -10 0 -5 7 -10 15 -10 8 0 15
-4 15 -10 0 -5 12 -10 26 -10 22 0 25 -2 14 -15 -10 -12 -10 -18 0 -30 11 -13
24 -4 94 62 353 338 759 626 1049 745 42 18 77 35 77 39 0 19 -361 160 -537
209 -323 89 -534 120 -843 125 -129 1 -255 1 -279 -2z"/>
<path d="M1598 3490 c-2 -6 -48 -55 -103 -110 -63 -63 -93 -100 -82 -100 18 0
145 61 226 108 40 23 42 26 25 39 -13 10 -14 13 -3 13 8 1 2 8 -13 16 -16 8
-28 21 -28 29 0 17 -17 20 -22 5z"/>
<path d="M2835 3426 c-44 -18 -93 -40 -110 -48 -31 -17 -62 -74 -43 -80 7 -3
7 -11 -1 -26 -11 -21 -30 -95 -34 -137 -2 -11 -11 -35 -20 -52 -10 -19 -13
-33 -7 -33 7 0 7 -7 -1 -22 -15 -28 -20 -68 -9 -68 5 0 11 14 15 30 4 17 11
28 16 24 5 -3 9 4 9 14 0 11 7 25 15 32 8 7 15 19 15 27 0 8 4 12 9 9 5 -3 12
5 15 19 4 14 10 25 15 25 5 0 12 14 16 30 4 17 11 28 16 24 5 -3 12 8 15 25 4
17 12 31 19 31 7 0 18 14 24 30 5 17 15 30 20 30 6 0 13 11 17 24 3 14 12 27
20 30 8 3 14 12 14 19 0 8 9 24 20 37 17 19 26 41 18 40 -2 -1 -39 -16 -83
-34z"/>
<path d="M1685 3401 c-6 -5 -61 -36 -123 -69 -113 -59 -114 -60 -90 -76 12 -9
24 -12 26 -7 2 7 10 6 20 0 13 -8 33 -3 87 24 39 19 94 42 123 52 57 18 59 26
12 45 -16 7 -30 19 -30 26 0 16 -12 18 -25 5z"/>
<path d="M1704 3294 c-53 -31 -140 -96 -107 -80 6 4 14 2 18 -4 4 -6 10 -8 15
-5 4 3 13 -2 20 -10 7 -8 17 -15 22 -15 6 0 32 -11 58 -24 29 -15 51 -21 57
-15 6 6 19 -1 33 -16 13 -14 29 -25 36 -25 6 0 17 -7 24 -15 7 -8 17 -12 22
-9 5 3 20 -4 34 -17 13 -12 24 -19 24 -14 0 5 11 -2 25 -15 17 -16 25 -19 25
-9 1 9 7 6 20 -9 10 -12 22 -22 27 -21 4 1 10 1 13 -1 27 -10 50 -7 65 10 17
18 16 19 -9 26 -14 3 -26 12 -26 20 0 8 -3 14 -8 14 -4 0 -22 14 -40 30 -18
17 -40 30 -48 30 -8 0 -14 5 -14 10 0 6 -15 19 -32 30 -18 11 -33 23 -33 27 0
11 -51 60 -76 73 -11 6 -17 15 -14 20 4 6 -56 50 -68 50 -1 0 -30 -16 -63 -36z"/>
<path d="M3230 3164 c-109 -20 -245 -60 -243 -71 1 -5 -13 -15 -32 -22 -21 -7
-32 -17 -29 -25 3 -8 -5 -16 -21 -20 -14 -4 -23 -11 -20 -16 3 -6 2 -10 -4
-10 -5 0 -22 -11 -37 -25 -15 -14 -31 -25 -36 -25 -5 0 -7 -4 -4 -9 3 -5 -4
-11 -17 -15 -18 -5 -19 -8 -7 -15 9 -6 19 -6 27 0 7 6 16 8 21 5 6 -3 18 6 27
20 12 19 19 23 25 14 6 -9 13 -5 25 14 9 14 21 23 27 20 5 -3 15 0 23 6 8 7
15 9 15 4 0 -4 11 3 25 16 17 16 25 19 25 10 0 -9 6 -6 16 8 8 12 23 22 33 22
10 0 24 7 31 15 7 9 15 13 17 11 7 -7 78 32 99 55 10 11 20 15 24 9 4 -6 22
-2 48 11 67 33 60 35 -58 13z"/>
<path d="M4034 3165 c-4 -8 -12 -15 -20 -15 -8 0 -22 -9 -31 -20 -10 -11 -25
-20 -35 -20 -10 0 -18 -4 -18 -10 0 -5 -11 -12 -24 -16 -14 -3 -27 -12 -30
-20 -3 -8 -12 -14 -21 -14 -8 0 -15 -4 -15 -10 0 -5 -9 -10 -19 -10 -10 0 -21
-7 -25 -15 -3 -8 -15 -15 -26 -15 -11 0 -20 -4 -20 -10 0 -5 -13 -10 -30 -10
-22 0 -28 -4 -24 -15 5 -11 -1 -15 -18 -15 -14 0 -28 -3 -32 -7 -8 -8 -13 -9
-42 -12 -8 0 -12 -5 -9 -11 4 -6 -5 -10 -19 -10 -14 0 -26 -4 -26 -9 0 -5 -23
-12 -50 -16 -31 -4 -48 -11 -43 -18 4 -7 -6 -8 -30 -4 -29 5 -37 3 -37 -10 0
-10 -6 -14 -20 -10 -13 3 -20 0 -20 -9 0 -10 -8 -12 -32 -7 -24 5 -29 3 -23
-7 6 -10 0 -12 -24 -8 -17 2 -31 1 -31 -4 0 -4 -12 -8 -26 -8 -14 0 -23 -4
-20 -8 3 -5 -18 -9 -47 -10 -28 0 -53 -6 -55 -11 -2 -6 -17 -8 -35 -4 -29 6
-31 5 -19 -10 10 -12 19 -14 38 -7 13 5 30 7 38 4 8 -3 17 -1 21 5 3 6 11 11
16 11 6 0 8 -4 5 -9 -3 -4 18 -7 47 -6 28 2 55 -1 58 -7 3 -5 17 -4 34 2 18 7
31 7 34 1 4 -5 23 -8 44 -7 26 2 37 -1 37 -10 0 -23 19 -16 80 31 260 200 571
313 865 316 l100 1 -65 19 c-58 18 -229 57 -318 73 -24 4 -34 2 -38 -9z"/>
<path d="M2343 3153 c-26 -18 -30 -41 -8 -49 8 -4 15 -10 15 -16 0 -5 7 -16
15 -24 8 -9 15 -24 15 -35 0 -11 4 -18 9 -14 6 3 13 -10 17 -30 3 -19 10 -35
14 -35 5 0 10 -6 13 -12 2 -7 2 -4 0 7 -8 42 -12 54 -23 75 -6 11 -8 25 -5 30
3 5 -1 23 -10 40 -9 17 -14 34 -11 39 3 4 0 15 -7 24 -11 14 -14 14 -34 0z"/>
<path d="M2131 2976 c-13 -15 1 -32 18 -21 5 3 16 -3 23 -12 21 -28 59 -46 71
-34 7 7 5 12 -6 17 -9 3 -15 10 -12 14 3 5 -3 11 -14 15 -11 3 -22 12 -25 20
-7 19 -40 19 -55 1z"/>
<path d="M1227 2937 c-97 -118 -218 -332 -307 -542 -85 -199 -215 -628 -223
-736 -4 -43 0 -49 11 -19 l8 21 21 -21 c12 -11 29 -20 37 -20 8 0 18 -4 21
-10 11 -18 25 -11 25 13 0 32 66 346 96 457 33 122 82 276 99 315 7 17 25 59
40 95 45 109 131 270 197 370 35 52 66 101 71 108 6 9 -1 12 -26 12 -29 0 -41
-8 -70 -43z"/>
<path d="M1296 2903 c-51 -71 -124 -195 -177 -303 -59 -121 -65 -140 -45 -140
9 0 16 5 16 10 0 6 9 10 21 10 11 0 17 5 14 10 -3 6 3 10 15 10 12 0 18 5 15
10 -4 6 7 10 25 10 25 0 31 4 26 15 -4 11 2 15 20 15 14 0 22 4 19 10 -3 5 6
12 20 16 14 3 25 10 25 15 0 5 12 9 26 9 14 0 23 4 19 10 -4 6 5 10 19 10 14
0 26 5 26 10 0 6 7 10 15 10 8 0 15 4 15 9 0 5 14 12 30 16 17 4 28 11 24 16
-3 5 9 9 26 9 21 0 29 4 24 11 -5 8 3 10 25 7 20 -3 31 0 31 8 0 7 8 10 21 7
12 -3 25 0 29 7 5 8 24 13 44 12 20 -1 36 3 36 8 0 6 10 6 27 -1 18 -7 28 -6
33 0 3 6 29 9 58 7 29 -2 52 0 52 4 0 5 9 6 20 3 11 -3 20 0 20 6 0 11 -19 15
-57 12 -13 -1 -23 3 -23 9 0 5 -9 10 -20 10 -11 0 -20 4 -20 10 0 5 -13 7 -32
3 -24 -5 -29 -3 -23 7 6 10 0 11 -28 6 -29 -5 -36 -4 -31 7 4 11 -1 13 -21 10
-21 -4 -24 -2 -19 12 6 14 2 15 -30 10 -22 -5 -36 -3 -36 3 0 5 -20 13 -45 16
-25 4 -45 11 -45 17 0 5 -11 9 -25 9 -14 0 -25 4 -25 9 0 10 -54 31 -81 31
-11 0 -34 -21 -53 -47z"/>
<path d="M2264 2885 c11 -8 22 -12 25 -9 6 6 -19 24 -34 24 -5 -1 -1 -7 9 -15z"/>
<path d="M2741 2891 c-8 -5 -9 -11 -3 -15 5 -3 15 1 22 9 14 16 3 20 -19 6z"/>
<path d="M2325 2850 c3 -5 11 -10 16 -10 6 0 7 5 4 10 -3 6 -11 10 -16 10 -6
0 -7 -4 -4 -10z"/>
<path d="M2680 2850 c0 -5 7 -7 15 -4 8 4 15 8 15 10 0 2 -7 4 -15 4 -8 0 -15
-4 -15 -10z"/>
<path d="M1955 2760 c-19 -8 -19 -9 2 -9 12 -1 25 4 28 9 7 12 -2 12 -30 0z"/>
<path d="M2496 2739 c-9 -23 -13 -50 -9 -73 5 -31 10 -36 27 -34 18 3 21 11
24 53 2 32 -2 57 -12 70 -14 19 -15 19 -30 -16z"/>
<path d="M2020 2750 c0 -5 4 -10 9 -10 6 0 13 5 16 10 3 6 -1 10 -9 10 -9 0
-16 -4 -16 -10z"/>
<path d="M2975 2750 c3 -5 15 -10 26 -10 10 0 19 5 19 10 0 6 -12 10 -26 10
-14 0 -23 -4 -19 -10z"/>
<path d="M2935 2740 c-3 -6 1 -7 9 -4 18 7 21 14 7 14 -6 0 -13 -4 -16 -10z"/>
<path d="M2215 2720 c3 -5 8 -10 11 -10 2 0 4 5 4 10 0 6 -5 10 -11 10 -5 0
-7 -4 -4 -10z"/>
<path d="M2800 2719 c0 -5 5 -7 10 -4 6 3 10 8 10 11 0 2 -4 4 -10 4 -5 0 -10
-5 -10 -11z"/>
<path d="M2748 2713 c7 -3 16 -2 19 1 4 3 -2 6 -13 5 -11 0 -14 -3 -6 -6z"/>
<path d="M2757 2549 c7 -7 15 -10 18 -7 3 3 -2 9 -12 12 -14 6 -15 5 -6 -5z"/>
<path d="M2164 2531 c-10 -2 -25 -8 -31 -13 -9 -7 -13 -7 -13 1 0 8 -11 7 -34
-3 -19 -8 -36 -11 -38 -6 -2 5 -39 -23 -83 -61 -101 -89 -309 -246 -443 -334
-66 -44 -98 -71 -90 -76 33 -17 294 -42 504 -46 225 -5 405 5 516 28 l51 11
-6 208 c-4 114 -10 218 -15 230 -8 21 -9 20 -34 -17 -14 -21 -51 -63 -82 -95
-31 -31 -56 -59 -56 -63 0 -3 -7 -13 -15 -21 -8 -9 -15 -13 -15 -10 0 9 -133
-83 -147 -102 -7 -9 -13 -11 -13 -4 0 6 -16 0 -36 -13 -20 -14 -43 -25 -50
-25 -8 0 -14 -8 -14 -17 0 -14 -2 -15 -9 -4 -7 11 -13 9 -29 -7 -14 -14 -22
-17 -26 -9 -2 7 -5 3 -5 -8 -1 -16 -3 -17 -11 -5 -8 12 -10 12 -16 -4 -5 -14
-9 -15 -15 -4 -7 10 -9 9 -9 -4 0 -11 -5 -15 -15 -12 -8 4 -22 1 -29 -5 -8 -7
-33 -14 -55 -16 -39 -4 -40 -3 -28 16 9 15 9 21 0 27 -9 6 -7 12 7 22 11 8 20
20 20 27 0 7 5 13 11 13 5 0 7 5 4 10 -3 6 -1 10 5 10 6 0 8 5 5 10 -3 6 -1
10 5 10 6 0 8 5 5 10 -3 6 3 10 14 10 12 0 20 3 20 8 -4 24 3 42 17 42 14 0
14 3 4 15 -10 13 -9 15 11 15 19 0 21 2 9 10 -12 8 -10 10 10 10 20 0 22 2 10
10 -12 8 -11 10 8 10 20 0 21 3 12 20 -9 17 -8 20 10 20 11 0 20 7 20 15 0 8
6 15 13 15 7 0 19 9 27 20 8 11 20 20 28 20 7 0 10 5 7 10 -3 6 2 10 12 10 10
0 25 9 33 20 8 11 25 20 38 20 13 0 20 4 17 10 -4 6 5 10 20 10 15 0 24 4 20
10 -3 6 3 10 14 10 12 0 21 4 21 9 0 9 -27 10 -66 2z"/>
<path d="M2800 2530 c0 -6 9 -10 21 -10 11 0 17 -4 14 -10 -3 -5 3 -10 14 -10
12 0 21 -4 21 -10 0 -5 8 -10 18 -10 10 0 28 -9 40 -20 12 -11 29 -20 39 -20
15 0 16 -2 3 -10 -12 -8 -10 -10 8 -10 13 0 21 -4 18 -9 -4 -5 7 -15 24 -23
16 -7 30 -19 30 -25 0 -28 27 -10 69 43 42 53 43 58 26 70 -10 7 -21 11 -26 9
-4 -3 -10 -1 -14 5 -4 6 -11 8 -16 4 -5 -3 -16 0 -24 6 -12 10 -15 9 -15 -4 0
-14 -4 -13 -34 4 -25 13 -36 15 -39 7 -3 -9 -7 -9 -19 1 -9 7 -31 15 -49 17
-19 3 -51 7 -71 10 -22 3 -38 1 -38 -5z"/>
<path d="M1915 2481 c-12 -12 -15 -13 -15 -2 0 11 -5 9 -20 -4 -12 -11 -20
-13 -20 -6 0 7 -5 9 -11 6 -5 -4 -22 -9 -37 -11 -15 -3 -34 -6 -42 -7 -9 -2
-22 -7 -30 -12 -9 -5 -15 -4 -18 3 -10 31 -67 -32 -173 -190 -62 -92 -110
-170 -107 -173 17 -17 538 376 538 406 0 14 -48 6 -65 -10z"/>
<path d="M2557 2280 c3 -118 9 -219 13 -224 11 -11 126 27 227 76 75 36 96 58
57 58 -8 0 -14 4 -14 8 0 10 -77 62 -91 62 -5 0 -9 4 -9 9 0 4 -34 43 -75 86
-41 43 -75 82 -75 87 0 4 -4 8 -8 8 -5 0 -14 10 -20 23 -8 16 -9 -35 -5 -193z"/>
<path d="M3194 2460 c-21 -8 -124 -127 -124 -142 0 -5 7 -8 16 -8 8 0 12 -4 9
-10 -3 -5 1 -10 10 -10 9 0 13 -4 10 -10 -3 -5 1 -10 9 -10 10 0 13 -6 10 -15
-4 -10 0 -15 10 -15 9 0 16 -6 15 -12 -3 -28 2 -38 20 -38 14 0 19 -6 16 -20
-2 -13 2 -20 11 -20 8 0 12 -4 9 -10 -3 -5 -2 -10 4 -10 6 0 8 -7 5 -15 -4
-10 0 -15 11 -15 9 0 13 -4 10 -10 -3 -5 0 -10 7 -10 10 0 9 -3 -1 -9 -12 -8
-13 -12 -1 -25 17 -22 7 -30 -19 -16 -16 8 -21 8 -21 -1 0 -7 -9 -5 -26 6 -14
9 -32 14 -40 11 -8 -3 -14 1 -14 9 0 9 -6 12 -15 9 -9 -4 -15 0 -15 7 0 11 -3
11 -10 -1 -6 -10 -10 -11 -10 -2 0 6 -5 12 -11 12 -6 0 -18 7 -26 16 -13 13
-17 13 -24 2 -7 -10 -9 -9 -9 3 0 15 -16 24 -59 34 -8 2 -17 8 -20 12 -13 19
-56 10 -124 -24 -39 -20 -109 -49 -157 -64 l-85 -27 -6 -139 c-3 -76 -9 -159
-13 -184 l-8 -46 78 -12 c367 -54 690 7 862 163 29 27 97 104 150 169 53 66
135 163 182 216 47 52 102 114 124 138 l38 44 -27 -5 c-15 -3 -36 -1 -46 5
-13 7 -19 6 -19 -1 0 -8 -6 -8 -20 0 -11 6 -25 8 -31 5 -5 -4 -16 -1 -24 5 -8
6 -19 9 -24 5 -6 -3 -20 -1 -31 5 -15 8 -20 8 -20 -1 0 -8 -4 -8 -12 -2 -7 6
-20 10 -28 10 -8 1 -23 4 -32 8 -10 4 -18 3 -18 -3 0 -5 -12 -8 -27 -5 -16 2
-42 5 -58 7 -17 1 -40 8 -52 14 -16 9 -22 9 -25 0 -3 -7 -9 -8 -19 -2 -8 5
-25 10 -39 11 -55 5 -87 10 -97 16 -6 4 -13 1 -16 -5 -3 -10 -7 -10 -18 -2 -8
6 -21 11 -29 11 -8 1 -22 3 -30 6 -8 3 -25 2 -36 -3z"/>
<path d="M1040 2424 c0 -8 5 -12 10 -9 6 3 10 10 10 16 0 5 -4 9 -10 9 -5 0
-10 -7 -10 -16z"/>
<path d="M1480 2006 c94 -53 473 -194 688 -257 102 -30 323 -81 327 -77 7 9
15 337 8 341 -4 3 -44 -1 -88 -9 -149 -26 -405 -37 -590 -24 -156 10 -282 23
-345 35 l-25 5 25 -14z"/>
<path d="M1157 1834 c-3 -4 -2 -15 4 -25 5 -10 10 -88 11 -174 1 -86 5 -158
10 -161 4 -3 8 -1 8 4 0 9 77 62 91 62 5 0 9 5 9 10 0 6 6 10 14 10 8 0 23 11
33 24 10 13 34 31 53 41 32 16 90 71 90 85 0 3 -13 20 -29 38 -27 28 -43 37
-55 30 -2 -2 -12 4 -22 13 -36 30 -198 62 -217 43z"/>
<path d="M1183 1336 c-8 -12 -4 -326 3 -338 8 -12 111 -3 127 11 8 6 16 9 19
6 4 -5 137 56 194 88 35 20 94 89 94 109 0 11 -5 28 -10 39 -12 22 -91 60
-135 64 -46 5 -109 17 -120 24 -18 11 -166 8 -172 -3z"/>
<path d="M3685 1322 c-16 -26 -33 -58 -37 -72 -4 -14 -15 -50 -24 -80 -23 -74
-32 -177 -19 -204 19 -39 56 -32 120 25 33 29 62 57 64 63 2 6 13 20 25 32 12
11 29 34 38 50 10 16 23 38 30 49 7 10 23 35 34 55 l21 36 -31 36 c-42 48 -62
57 -132 57 l-59 -1 -30 -46z"/>
<path d="M2702 1371 c-61 -61 -127 -409 -80 -419 18 -4 35 8 71 47 12 13 41
42 63 65 23 22 49 55 57 72 9 17 23 37 32 44 25 21 77 139 70 160 -9 27 -84
60 -137 60 -38 0 -52 -5 -76 -29z"/>
<path d="M1979 1379 c-33 -12 -113 -147 -98 -165 8 -10 18 -9 46 2 84 35 145
112 123 154 -12 22 -30 24 -71 9z"/>
<path d="M2281 523 c-52 -63 -50 -123 4 -123 35 0 65 45 65 94 0 39 -13 66
-31 66 -4 0 -21 -17 -38 -37z"/>
<path d="M408 469 c-10 -5 -18 -21 -18 -35 0 -37 39 -28 63 14 l19 32 -24 0
c-12 0 -31 -5 -40 -11z"/>
<path d="M715 460 c-19 -21 -14 -50 8 -50 16 0 57 41 57 58 0 19 -45 14 -65
-8z"/>
<path d="M2038 469 c-25 -14 -24 -59 1 -59 19 0 61 43 61 61 0 12 -41 11 -62
-2z"/>
<path d="M3028 469 c-10 -5 -18 -21 -18 -35 0 -37 39 -28 63 14 l19 32 -24 0
c-12 0 -31 -5 -40 -11z"/>
<path d="M3445 539 c-20 -37 -16 -43 24 -34 51 11 64 65 15 65 -16 0 -28 -9
-39 -31z"/>
<path d="M3632 558 c-5 -7 -13 -23 -16 -35 -8 -27 8 -30 49 -11 34 15 35 58 1
58 -13 0 -28 -6 -34 -12z"/>
<path d="M4726 459 c-8 -12 -12 -28 -9 -36 9 -24 46 -10 66 25 l19 32 -31 0
c-19 0 -35 -8 -45 -21z"/>
<path d="M5246 548 c-17 -24 -21 -48 -7 -48 4 0 22 5 40 11 24 9 31 16 29 33
-4 30 -42 33 -62 4z"/>
<path d="M5428 469 c-10 -5 -18 -21 -18 -35 0 -37 39 -28 63 14 l19 32 -24 0
c-12 0 -31 -5 -40 -11z"/>
</g>
</svg>
